<svg width="24" height="28" viewBox="0 0 24 28" fill="none" xmlns="http://www.w3.org/2000/svg">
<path d="M9 25.3333H15C20 25.3333 22 23 22 17.1667V10.1667C22 4.33333 20 2 15 2H9C4 2 2 4.33333 2 10.1667V17.1667C2 23 4 25.3333 9 25.3333Z" stroke="white" stroke-width="1.5" stroke-linecap="round" stroke-linejoin="round"/>
<path d="M16.2799 15.8783C15.1499 17.1967 13.5299 17.605 12.0999 17.08L9.50995 20.09C9.32995 20.3117 8.95995 20.4517 8.68995 20.405L7.48995 20.2183C7.08995 20.16 6.72995 19.7167 6.66995 19.2617L6.50995 17.8617C6.46995 17.5583 6.59995 17.1267 6.77995 16.905L9.35995 13.895C8.91995 12.2267 9.25995 10.3367 10.3899 9.01835C12.0099 7.12835 14.6499 7.12835 16.2799 9.01835C17.8999 10.8967 17.8999 13.9767 16.2799 15.8783Z" stroke="white" stroke-width="1.5" stroke-miterlimit="10" stroke-linecap="round" stroke-linejoin="round"/>
<path d="M10.45 18.9933L9.59998 17.99" stroke="white" stroke-width="1.5" stroke-miterlimit="10" stroke-linecap="round" stroke-linejoin="round"/>
<path d="M13.3945 12.4833H13.4035" stroke="white" stroke-width="2" stroke-linecap="round" stroke-linejoin="round"/>
</svg>
