<?xml version="1.0" encoding="UTF-8"?>
<svg id="Layer_2" data-name="Layer 2" xmlns="http://www.w3.org/2000/svg" viewBox="0 0 411.66 411.62">
  <g id="Layer_42" data-name="Layer 42">
    <path d="m405.59,172.99c-3.81-2.57-8.63-3.08-12.89-1.38l-87.16,34.87-1.44-9.32c-4.27-27.64-27.66-47.78-55.63-47.88H56.5c-31.16,0-56.5,25.35-56.5,56.5v149.34c0,31.15,25.34,56.5,56.5,56.5h192c27.93-.1,51.33-20.23,55.6-47.86l1.45-9.32,87.15,34.86c3.43,1.37,7.19,1.33,10.58-.13,3.4-1.46,6.02-4.15,7.4-7.58.65-1.64.98-3.37.98-5.14v-192c0-4.6-2.27-8.88-6.07-11.46Zm-128.26,182.13c0,15.89-12.93,28.83-28.83,28.83H56.5c-15.9,0-28.84-12.94-28.84-28.83v-149.34c0-15.9,12.94-28.83,28.84-28.83h192c15.9,0,28.83,12.93,28.83,28.83v149.34Zm106.67-10.16h-7.51l-2.78,6.94-68.71-27.48v-87.94l79-31.6v140.08Z"/>
    <path d="m247.42,57.07c-5.04,5.65-13.72,6.19-19.42,1.22-20.3-19.83-47.11-30.75-75.5-30.75s-55.2,10.92-75.51,30.75c-5.34,4.66-13.26,4.56-18.48-.27-2.71-2.5-4.29-5.92-4.43-9.61-.15-3.63,1.11-7.11,3.54-9.81C83.15,13.71,116.83,0,152.5,0s69.35,13.71,94.87,38.6c4.74,5.26,4.77,13.17.05,18.47Z"/>
    <path d="m201.19,100.38c-.15,3.69-1.72,7.1-4.44,9.61-5.6,5.18-14.37,4.83-19.54-.77l-.25-.26c-13.49-13.28-35.44-13.28-48.92,0l-.25.26c-.3.32-.63.64-.96.93-5.69,5.08-14.45,4.58-19.53-1.12-5.07-5.69-4.57-14.45,1.12-19.53l.25-.23c11.79-11.52,27.35-17.87,43.83-17.87s32.04,6.35,43.82,17.87l.25.23c.33.3.66.62.96.94,2.51,2.72,3.81,6.24,3.66,9.94Z"/>
  </g>
</svg>