<?xml version="1.0" encoding="utf-8"?>
<!-- Generator: Adobe Illustrator 27.5.0, SVG Export Plug-In . SVG Version: 6.00 Build 0)  -->
<svg version="1.1" id="Layer_2_00000165948508772438119370000011154756745996490149_"
	 xmlns="http://www.w3.org/2000/svg" xmlns:xlink="http://www.w3.org/1999/xlink" x="0px" y="0px" viewBox="0 0 411.7 262.3"
	 style="enable-background:new 0 0 411.7 262.3;" xml:space="preserve">
<g>
	<path d="M411.7,34.3c0-0.2,0-0.5-0.1-0.8c0-0.2,0-0.3-0.1-0.5c-0.1-0.6-0.2-1.3-0.4-1.9c0-0.1-0.1-0.2-0.1-0.3
		c-0.1-0.2-0.1-0.4-0.2-0.5c-1-2.7-2.8-5-5.2-6.7c-1.4-1-3-1.7-4.6-2h-0.1c-0.3-0.1-0.6-0.1-1-0.2c-0.3-0.1-0.7-0.1-1-0.1
		c-2.1-0.2-4.2,0.2-6.2,1l-87.1,34.9h-0.1l-1.4-9.3C299.8,20.2,276.4,0.1,248.5,0h-192C25.3,0,0,25.4,0,56.5v149.3
		c0,31.1,25.3,56.5,56.5,56.5h192c27.9-0.1,51.3-20.2,55.6-47.9l1.5-9.3l0,0l87.1,34.9c2,0.8,4.1,1.1,6.2,1c0.3,0,0.7-0.1,1-0.1
		c0.3-0.1,0.6-0.1,1-0.2h0.1c0.8-0.2,1.6-0.4,2.3-0.7c3.4-1.5,6-4.1,7.4-7.6c0-0.1,0.1-0.3,0.1-0.4c0.1-0.2,0.1-0.4,0.2-0.5
		c0-0.1,0.1-0.2,0.1-0.3c0.2-0.6,0.3-1.2,0.4-1.9c0-0.2,0.1-0.3,0.1-0.5s0.1-0.5,0.1-0.8c0-0.2,0-0.5,0-0.8V35.1
		C411.7,34.8,411.7,34.6,411.7,34.3z M277.3,205.8c0,15.9-12.9,28.8-28.8,28.8h-192c-15.9,0-28.8-12.9-28.8-28.8V56.5
		c0-15.9,12.9-28.8,28.8-28.8h192c15.9,0,28.8,12.9,28.8,28.8V205.8z M384,206.7l-10.3-4.1l0,0L305,175.1V87.2l68.7-27.5l10.3-4.1
		V206.7z"/>
</g>
</svg>
