<svg width="22" height="26" viewBox="0 0 22 26" fill="none" xmlns="http://www.w3.org/2000/svg">
<path d="M13.75 25.2836H7.75C2.32 25.2836 0 22.5554 0 16.1698V9.11387C0 2.72828 2.32 0 7.75 0H13.75C19.18 0 21.5 2.72828 21.5 9.11387V16.1698C21.5 22.5554 19.18 25.2836 13.75 25.2836ZM7.75 1.76398C3.14 1.76398 1.5 3.69259 1.5 9.11387V16.1698C1.5 21.5911 3.14 23.5197 7.75 23.5197H13.75C18.36 23.5197 20 21.5911 20 16.1698V9.11387C20 3.69259 18.36 1.76398 13.75 1.76398H7.75Z" fill="#2D4047"/>
<path d="M10.7506 13.9123C10.6206 13.9123 10.4906 13.877 10.3706 13.7947L5.07061 10.1962C4.71061 9.9492 4.59059 9.40825 4.80059 8.99665C5.01059 8.5733 5.47061 8.43218 5.82061 8.67914L10.7406 12.0307L15.6306 8.70266C15.9906 8.4557 16.4506 8.60858 16.6506 9.02017C16.8506 9.43176 16.7306 9.98448 16.3806 10.2197L11.1206 13.7947C11.0106 13.8652 10.8806 13.9123 10.7506 13.9123Z" fill="#2D4047"/>
<path d="M10.75 20.3098C10.34 20.3098 10 19.9099 10 19.4278V13.0304C10 12.5483 10.34 12.1484 10.75 12.1484C11.16 12.1484 11.5 12.5483 11.5 13.0304V19.4278C11.5 19.9099 11.16 20.3098 10.75 20.3098Z" fill="#2D4047"/>
<path d="M10.7502 20.5799C10.1702 20.5799 9.6003 20.4271 9.1403 20.1331L5.94025 18.0398C4.98025 17.4165 4.24023 15.923 4.24023 14.6295V10.6429C4.24023 9.36106 4.99025 7.86755 5.94025 7.23252L9.1403 5.13927C10.0603 4.53952 11.4402 4.53952 12.3602 5.13927L15.5602 7.23252C16.5202 7.85579 17.2603 9.3493 17.2603 10.6429V14.6295C17.2603 15.9113 16.5102 17.4048 15.5602 18.0398L12.3602 20.1331C11.9002 20.4388 11.3302 20.5799 10.7502 20.5799ZM10.7502 6.46813C10.4202 6.46813 10.1002 6.53869 9.8702 6.69156L6.67026 8.78482C6.18026 9.10233 5.74023 9.99608 5.74023 10.6429V14.6295C5.74023 15.288 6.18026 16.17 6.67026 16.4875L9.8702 18.5808C10.3302 18.8865 11.1702 18.8865 11.6302 18.5808L14.8302 16.4875C15.3202 16.17 15.7603 15.2762 15.7603 14.6295V10.6429C15.7603 9.98433 15.3202 9.10233 14.8302 8.78482L11.6302 6.69156C11.4002 6.53869 11.0802 6.46813 10.7502 6.46813Z" fill="#2D4047"/>
</svg>
