<svg width="391" height="128" viewBox="0 0 391 128" fill="none" xmlns="http://www.w3.org/2000/svg">
<path d="M93.8672 19.5C93.8672 16.0667 94.6339 13 96.1672 10.3C97.7339 7.56666 99.8505 5.45 102.517 3.95C105.217 2.41667 108.234 1.65 111.567 1.65C115.467 1.65 118.884 2.65 121.817 4.65C124.751 6.65 126.801 9.41667 127.967 12.95H119.917C119.117 11.2833 117.984 10.0333 116.517 9.2C115.084 8.36666 113.417 7.95 111.517 7.95C109.484 7.95 107.667 8.43333 106.067 9.4C104.501 10.3333 103.267 11.6667 102.367 13.4C101.501 15.1333 101.067 17.1667 101.067 19.5C101.067 21.8 101.501 23.8333 102.367 25.6C103.267 27.3333 104.501 28.6833 106.067 29.65C107.667 30.5833 109.484 31.05 111.517 31.05C113.417 31.05 115.084 30.6333 116.517 29.8C117.984 28.9333 119.117 27.6667 119.917 26H127.967C126.801 29.5667 124.751 32.35 121.817 34.35C118.917 36.3167 115.501 37.3 111.567 37.3C108.234 37.3 105.217 36.55 102.517 35.05C99.8505 33.5167 97.7339 31.4 96.1672 28.7C94.6339 26 93.8672 22.9333 93.8672 19.5ZM131.646 23.05C131.646 20.25 132.196 17.7667 133.296 15.6C134.429 13.4333 135.946 11.7667 137.846 10.6C139.779 9.43333 141.929 8.85 144.296 8.85C146.363 8.85 148.163 9.26667 149.696 10.1C151.263 10.9333 152.513 11.9833 153.446 13.25V9.3H160.496V37H153.446V32.95C152.546 34.25 151.296 35.3333 149.696 36.2C148.129 37.0333 146.313 37.45 144.246 37.45C141.913 37.45 139.779 36.85 137.846 35.65C135.946 34.45 134.429 32.7667 133.296 30.6C132.196 28.4 131.646 25.8833 131.646 23.05ZM153.446 23.15C153.446 21.45 153.113 20 152.446 18.8C151.779 17.5667 150.879 16.6333 149.746 16C148.613 15.3333 147.396 15 146.096 15C144.796 15 143.596 15.3167 142.496 15.95C141.396 16.5833 140.496 17.5167 139.796 18.75C139.129 19.95 138.796 21.3833 138.796 23.05C138.796 24.7167 139.129 26.1833 139.796 27.45C140.496 28.6833 141.396 29.6333 142.496 30.3C143.629 30.9667 144.829 31.3 146.096 31.3C147.396 31.3 148.613 30.9833 149.746 30.35C150.879 29.6833 151.779 28.75 152.446 27.55C153.113 26.3167 153.446 24.85 153.446 23.15ZM173.833 13.3C174.733 12.0333 175.966 10.9833 177.533 10.15C179.133 9.28333 180.949 8.85 182.983 8.85C185.349 8.85 187.483 9.43333 189.383 10.6C191.316 11.7667 192.833 13.4333 193.933 15.6C195.066 17.7333 195.633 20.2167 195.633 23.05C195.633 25.8833 195.066 28.4 193.933 30.6C192.833 32.7667 191.316 34.45 189.383 35.65C187.483 36.85 185.349 37.45 182.983 37.45C180.949 37.45 179.149 37.0333 177.583 36.2C176.049 35.3667 174.799 34.3167 173.833 33.05V50.2H166.833V9.3H173.833V13.3ZM188.483 23.05C188.483 21.3833 188.133 19.95 187.433 18.75C186.766 17.5167 185.866 16.5833 184.733 15.95C183.633 15.3167 182.433 15 181.133 15C179.866 15 178.666 15.3333 177.533 16C176.433 16.6333 175.533 17.5667 174.833 18.8C174.166 20.0333 173.833 21.4833 173.833 23.15C173.833 24.8167 174.166 26.2667 174.833 27.5C175.533 28.7333 176.433 29.6833 177.533 30.35C178.666 30.9833 179.866 31.3 181.133 31.3C182.433 31.3 183.633 30.9667 184.733 30.3C185.866 29.6333 186.766 28.6833 187.433 27.45C188.133 26.2167 188.483 24.75 188.483 23.05ZM208.37 15.05V28.45C208.37 29.3833 208.586 30.0667 209.02 30.5C209.486 30.9 210.253 31.1 211.32 31.1H214.57V37H210.17C204.27 37 201.32 34.1333 201.32 28.4V15.05H198.02V9.3H201.32V2.45H208.37V9.3H214.57V15.05H208.37ZM245.254 9.3V37H238.204V33.5C237.304 34.7 236.121 35.65 234.654 36.35C233.221 37.0167 231.654 37.35 229.954 37.35C227.788 37.35 225.871 36.9 224.204 36C222.538 35.0667 221.221 33.7167 220.254 31.95C219.321 30.15 218.854 28.0167 218.854 25.55V9.3H225.854V24.55C225.854 26.75 226.404 28.45 227.504 29.65C228.604 30.8167 230.104 31.4 232.004 31.4C233.938 31.4 235.454 30.8167 236.554 29.65C237.654 28.45 238.204 26.75 238.204 24.55V9.3H245.254ZM258.661 13.6C259.561 12.1333 260.728 10.9833 262.161 10.15C263.628 9.31667 265.294 8.9 267.161 8.9V16.25H265.311C263.111 16.25 261.444 16.7667 260.311 17.8C259.211 18.8333 258.661 20.6333 258.661 23.2V37H251.661V9.3H258.661V13.6ZM297.126 22.55C297.126 23.55 297.059 24.45 296.926 25.25H276.676C276.842 27.25 277.542 28.8167 278.776 29.95C280.009 31.0833 281.526 31.65 283.326 31.65C285.926 31.65 287.776 30.5333 288.876 28.3H296.426C295.626 30.9667 294.092 33.1667 291.826 34.9C289.559 36.6 286.776 37.45 283.476 37.45C280.809 37.45 278.409 36.8667 276.276 35.7C274.176 34.5 272.526 32.8167 271.326 30.65C270.159 28.4833 269.576 25.9833 269.576 23.15C269.576 20.2833 270.159 17.7667 271.326 15.6C272.492 13.4333 274.126 11.7667 276.226 10.6C278.326 9.43333 280.742 8.85 283.476 8.85C286.109 8.85 288.459 9.41667 290.526 10.55C292.626 11.6833 294.242 13.3 295.376 15.4C296.542 17.4667 297.126 19.85 297.126 22.55ZM289.876 20.55C289.842 18.75 289.192 17.3167 287.926 16.25C286.659 15.15 285.109 14.6 283.276 14.6C281.542 14.6 280.076 15.1333 278.876 16.2C277.709 17.2333 276.992 18.6833 276.726 20.55H289.876ZM321.299 15.05V28.45C321.299 29.3833 321.516 30.0667 321.949 30.5C322.416 30.9 323.183 31.1 324.249 31.1H327.499V37H323.099C317.199 37 314.249 34.1333 314.249 28.4V15.05H310.949V9.3H314.249V2.45H321.299V9.3H327.499V15.05H321.299ZM347.634 8.9C349.734 8.9 351.601 9.36666 353.234 10.3C354.867 11.2 356.134 12.55 357.034 14.35C357.967 16.1167 358.434 18.25 358.434 20.75V37H351.434V21.7C351.434 19.5 350.884 17.8167 349.784 16.65C348.684 15.45 347.184 14.85 345.284 14.85C343.351 14.85 341.817 15.45 340.684 16.65C339.584 17.8167 339.034 19.5 339.034 21.7V37H332.034V-4.76837e-07H339.034V12.75C339.934 11.55 341.134 10.6167 342.634 9.95C344.134 9.25 345.801 8.9 347.634 8.9ZM390.341 22.55C390.341 23.55 390.274 24.45 390.141 25.25H369.891C370.057 27.25 370.757 28.8167 371.991 29.95C373.224 31.0833 374.741 31.65 376.541 31.65C379.141 31.65 380.991 30.5333 382.091 28.3H389.641C388.841 30.9667 387.307 33.1667 385.041 34.9C382.774 36.6 379.991 37.45 376.691 37.45C374.024 37.45 371.624 36.8667 369.491 35.7C367.391 34.5 365.741 32.8167 364.541 30.65C363.374 28.4833 362.791 25.9833 362.791 23.15C362.791 20.2833 363.374 17.7667 364.541 15.6C365.707 13.4333 367.341 11.7667 369.441 10.6C371.541 9.43333 373.957 8.85 376.691 8.85C379.324 8.85 381.674 9.41667 383.741 10.55C385.841 11.6833 387.457 13.3 388.591 15.4C389.757 17.4667 390.341 19.85 390.341 22.55ZM383.091 20.55C383.057 18.75 382.407 17.3167 381.141 16.25C379.874 15.15 378.324 14.6 376.491 14.6C374.757 14.6 373.291 15.1333 372.091 16.2C370.924 17.2333 370.207 18.6833 369.941 20.55H383.091Z" fill="#4AA592"/>
<path d="M8.5114 85.12V111.04C8.5114 113.88 9.2514 116.06 10.7314 117.58C12.2114 119.06 14.2914 119.8 16.9714 119.8C19.6914 119.8 21.7914 119.06 23.2714 117.58C24.7514 116.06 25.4914 113.88 25.4914 111.04V85.12H33.9514V110.98C33.9514 114.54 33.1714 117.56 31.6114 120.04C30.0914 122.48 28.0314 124.32 25.4314 125.56C22.8714 126.8 20.0114 127.42 16.8514 127.42C13.7314 127.42 10.8914 126.8 8.3314 125.56C5.8114 124.32 3.8114 122.48 2.3314 120.04C0.8514 117.56 0.1114 114.54 0.1114 110.98V85.12H8.5114ZM77.2873 127H68.8873L49.8673 98.26V127H41.4673V85.06H49.8673L68.8873 113.86V85.06H77.2873V127ZM82.9484 106C82.9484 101.88 83.8684 98.2 85.7084 94.96C87.5884 91.68 90.1285 89.14 93.3284 87.34C96.5684 85.5 100.188 84.58 104.188 84.58C108.868 84.58 112.968 85.78 116.488 88.18C120.008 90.58 122.468 93.9 123.868 98.14H114.208C113.248 96.14 111.888 94.64 110.128 93.64C108.408 92.64 106.408 92.14 104.128 92.14C101.688 92.14 99.5085 92.72 97.5885 93.88C95.7085 95 94.2285 96.6 93.1485 98.68C92.1085 100.76 91.5885 103.2 91.5885 106C91.5885 108.76 92.1085 111.2 93.1485 113.32C94.2285 115.4 95.7085 117.02 97.5885 118.18C99.5085 119.3 101.688 119.86 104.128 119.86C106.408 119.86 108.408 119.36 110.128 118.36C111.888 117.32 113.248 115.8 114.208 113.8H123.868C122.468 118.08 120.008 121.42 116.488 123.82C113.008 126.18 108.908 127.36 104.188 127.36C100.188 127.36 96.5684 126.46 93.3284 124.66C90.1285 122.82 87.5884 120.28 85.7084 117.04C83.8684 113.8 82.9484 110.12 82.9484 106ZM156.123 119.02H139.443L136.683 127H127.863L142.923 85.06H152.703L167.763 127H158.883L156.123 119.02ZM153.843 112.3L147.783 94.78L141.723 112.3H153.843ZM203.332 98.08C203.332 100.32 202.792 102.42 201.712 104.38C200.672 106.34 199.012 107.92 196.732 109.12C194.492 110.32 191.652 110.92 188.212 110.92H181.192V127H172.792V85.12H188.212C191.452 85.12 194.212 85.68 196.492 86.8C198.772 87.92 200.472 89.46 201.592 91.42C202.752 93.38 203.332 95.6 203.332 98.08ZM187.852 104.14C190.172 104.14 191.892 103.62 193.012 102.58C194.132 101.5 194.692 100 194.692 98.08C194.692 94 192.412 91.96 187.852 91.96H181.192V104.14H187.852ZM237.196 85.12V91.9H226.036V127H217.636V91.9H206.476V85.12H237.196ZM251.005 85.12V111.04C251.005 113.88 251.745 116.06 253.225 117.58C254.705 119.06 256.785 119.8 259.465 119.8C262.185 119.8 264.285 119.06 265.765 117.58C267.245 116.06 267.985 113.88 267.985 111.04V85.12H276.445V110.98C276.445 114.54 275.665 117.56 274.105 120.04C272.585 122.48 270.525 124.32 267.925 125.56C265.365 126.8 262.505 127.42 259.345 127.42C256.225 127.42 253.385 126.8 250.825 125.56C248.305 124.32 246.305 122.48 244.825 120.04C243.345 117.56 242.605 114.54 242.605 110.98V85.12H251.005ZM305.561 127L296.321 110.68H292.361V127H283.961V85.12H299.681C302.921 85.12 305.681 85.7 307.961 86.86C310.241 87.98 311.941 89.52 313.061 91.48C314.221 93.4 314.801 95.56 314.801 97.96C314.801 100.72 314.001 103.22 312.401 105.46C310.801 107.66 308.421 109.18 305.261 110.02L315.281 127H305.561ZM292.361 104.38H299.381C301.661 104.38 303.361 103.84 304.481 102.76C305.601 101.64 306.161 100.1 306.161 98.14C306.161 96.22 305.601 94.74 304.481 93.7C303.361 92.62 301.661 92.08 299.381 92.08H292.361V104.38ZM330.199 91.9V102.4H344.299V109.06H330.199V120.16H346.099V127H321.799V85.06H346.099V91.9H330.199ZM367.772 85.12C372.172 85.12 376.032 85.98 379.352 87.7C382.712 89.42 385.292 91.88 387.092 95.08C388.932 98.24 389.852 101.92 389.852 106.12C389.852 110.32 388.932 114 387.092 117.16C385.292 120.28 382.712 122.7 379.352 124.42C376.032 126.14 372.172 127 367.772 127H353.132V85.12H367.772ZM367.472 119.86C371.872 119.86 375.272 118.66 377.672 116.26C380.072 113.86 381.272 110.48 381.272 106.12C381.272 101.76 380.072 98.36 377.672 95.92C375.272 93.44 371.872 92.2 367.472 92.2H361.532V119.86H367.472Z" fill="#4F5965"/>
</svg>
