<svg width="22" height="25" viewBox="0 0 22 25" fill="none" xmlns="http://www.w3.org/2000/svg">
<path d="M14 1H8C3 1 1 3.35197 1 9.23188V16.2878C1 20.733 2.14 23.1673 4.86 24.0728C5.08 21.0152 7.75 18.6045 11 18.6045C14.25 18.6045 16.92 21.0152 17.14 24.0728C19.86 23.1673 21 20.733 21 16.2878V9.23188C21 3.35197 19 1 14 1ZM11 15.3117C9.02 15.3117 7.42 13.4184 7.42 11.0899C7.42 8.76151 9.02 6.87992 11 6.87992C12.98 6.87992 14.58 8.76151 14.58 11.0899C14.58 13.4184 12.98 15.3117 11 15.3117Z" stroke="#2D4047" stroke-width="1.5" stroke-linecap="round" stroke-linejoin="round"/>
</svg>
