<svg width="22" height="26" viewBox="0 0 22 26" fill="none" xmlns="http://www.w3.org/2000/svg">
<path d="M14.0006 25.4019H8.00063C6.68063 25.4019 5.58063 25.2491 4.65063 24.9198C4.31063 24.8022 4.09063 24.4141 4.11063 24.0025C4.36063 20.4863 7.39063 17.7227 11.0006 17.7227C14.6106 17.7227 17.6306 20.4746 17.8906 24.0025C17.9206 24.4259 17.7006 24.8022 17.3506 24.9198C16.4206 25.2491 15.3206 25.4019 14.0006 25.4019ZM5.72063 23.4145C6.38063 23.5674 7.13063 23.638 8.00063 23.638H14.0006C14.8706 23.638 15.6206 23.5674 16.2806 23.4145C15.7506 21.1566 13.5606 19.4866 11.0006 19.4866C8.44063 19.4866 6.25063 21.1566 5.72063 23.4145Z" fill="white"/>
<path d="M14 1H8C3 1 1 3.35197 1 9.23188V16.2878C1 20.733 2.14 23.1673 4.86 24.0728C5.08 21.0152 7.75 18.6045 11 18.6045C14.25 18.6045 16.92 21.0152 17.14 24.0728C19.86 23.1673 21 20.733 21 16.2878V9.23188C21 3.35197 19 1 14 1ZM11 15.3117C9.02 15.3117 7.42 13.4184 7.42 11.0899C7.42 8.76151 9.02 6.87992 11 6.87992C12.98 6.87992 14.58 8.76151 14.58 11.0899C14.58 13.4184 12.98 15.3117 11 15.3117Z" stroke="white" stroke-width="1.5" stroke-linecap="round" stroke-linejoin="round"/>
</svg>
